<svg width="261" height="180" viewBox="0 0 261 180" fill="none" xmlns="http://www.w3.org/2000/svg">
<rect x="0.912109" y="0.51709" width="260.029" height="178.507" fill="#F9F9F9"/>
<g clip-path="url(#clip0_30_67)">
<path fill-rule="evenodd" clip-rule="evenodd" d="M176.724 83.5393C176.724 80.7119 178.152 79.9863 180.388 80.5072V88.7191H176.724V83.5393ZM166.617 79.7492V109.312C166.617 109.603 166.705 109.691 166.996 109.691H176.724V94.7834H180.388V109.691H190.495V74.064H171.039C169.367 74.064 168.413 74.7743 167.725 75.8036C167.076 76.7757 166.617 78.1916 166.617 79.7492V79.7492ZM102.058 88.5928V80.2545C104.039 80.2545 104.757 79.9384 105.246 81.8673C105.89 84.4058 105.92 89.4926 102.058 88.5928ZM91.9512 109.312C91.9512 109.603 92.0391 109.691 92.3302 109.691H102.058V94.7834C103.48 94.7834 105.722 93.9343 105.722 97.5628V109.439H115.955V95.036C115.955 93.2574 115.067 91.6455 113.302 91.4986C113.788 91.161 115.703 90.41 115.703 88.4665V80.2545C115.703 78.6528 114.822 76.8338 114.031 75.9885C113.048 74.9383 111.869 74.064 109.891 74.064H91.9512V109.312V109.312ZM139.202 109.691H149.309V94.7834H152.972V109.691H162.701C162.992 109.691 163.08 109.603 163.08 109.312V74.064H152.972V88.7191H149.309V74.064H139.202V109.691ZM212.73 81.2652C211.485 81.2652 210.077 80.0691 210.077 78.9911C210.077 77.8787 209.958 77.361 210.924 76.4269C212.529 74.8743 215.636 75.892 215.636 78.4858C215.636 80.0767 214.346 81.2652 212.73 81.2652ZM194.032 102.237C194.032 104.958 194.811 107.673 197.28 108.844C200.372 110.31 211.573 110.362 214.713 108.894C216.902 107.871 217.91 105.521 217.91 102.364V74.064H207.803V101.1C207.803 103.407 207.04 103.88 205.655 103.88C204.533 103.88 204.139 102.272 204.139 101.1V74.064H194.032V102.237H194.032ZM119.367 109.691L136.043 109.565V103.501H129.474V94.7834H136.043V88.7191H129.474V80.1282H136.043V74.064H119.367V109.691Z" fill="#5A5E5E"/>
<path fill-rule="evenodd" clip-rule="evenodd" d="M213.236 78.613C213.489 79.0903 213.873 79.4834 213.994 80.0027C213.198 79.9365 213.398 79.2775 212.914 78.8084C212.61 78.5136 212.861 78.613 212.225 78.613V80.0027H211.72V76.8443C212.639 76.8443 214.12 76.6285 214.12 77.7287C214.12 78.3552 213.824 78.5641 213.236 78.613ZM210.457 78.234C210.457 79.902 211.41 81.0019 212.842 80.9704C216.011 80.9007 216.02 75.96 212.731 75.96C211.59 75.96 210.457 77.0575 210.457 78.234Z" fill="#5A5E5E"/>
<path fill-rule="evenodd" clip-rule="evenodd" d="M212.225 78.3597H212.857C213.955 78.3597 213.879 77.2227 213.236 77.2227H212.225V78.3597Z" fill="#5A5E5E"/>
<path fill-rule="evenodd" clip-rule="evenodd" d="M52.9131 103.88C53.0374 104.346 52.9684 104.138 53.2841 104.394L55.0099 105.7C55.45 105.991 55.7747 106.247 56.2394 106.492C61.1746 109.098 66.6051 109.859 71.8232 107.251C73.3277 106.499 75.6976 104.972 76.7727 103.609C76.9446 103.392 77.0655 103.293 77.2667 103.093C79.5095 100.856 80.9601 96.6026 80.9601 93.1416C79.9649 93.808 78.2728 95.2766 76.8419 96.2246L72.3936 98.9777C71.3869 99.5875 70.175 100.112 69.0809 100.592C65.0327 102.367 62.0584 103.065 57.6263 103.666C56.1559 103.866 54.6862 103.88 52.9131 103.88V103.88Z" fill="#E9128B"/>
<path fill-rule="evenodd" clip-rule="evenodd" d="M43.9431 88.467C43.9431 92.0444 44.4504 94.9565 46.2909 97.7422C46.6867 98.3413 47.9389 100.046 48.4588 100.502C49.077 101.043 50.7487 102.466 51.397 102.617C50.8744 100.374 50.7654 95.9363 50.7654 93.3941C50.7654 88.1174 51.8327 84.0303 53.3712 79.7023C53.6519 78.9126 53.9822 78.1086 54.3443 77.3907C54.8461 76.396 54.7313 76.4062 55.4343 75.1958C55.833 74.5092 56.2055 73.7556 56.5769 73.0537C54.8902 73.4466 53.2172 74.3272 51.7675 75.1929C51.3711 75.4295 51.1136 75.6297 50.7133 75.9074L48.7787 77.5103C48.4129 77.8194 48.3168 78.0916 47.955 78.4553C46.0827 80.3368 43.9431 84.7346 43.9431 88.467V88.467Z" fill="#A4CC3A"/>
<path fill-rule="evenodd" clip-rule="evenodd" d="M58.9775 71.2847V71.5374C59.7398 71.6008 61.9014 72.6428 62.7145 72.9803C63.8386 73.447 65.1859 74.1571 66.2637 74.7373C69.4288 76.4413 72.7814 78.8348 75.3067 81.3602C77.4668 83.5202 77.1394 83.1564 79.0946 85.5316C79.5194 86.0477 79.8264 86.5252 80.2216 87.0577L82.3501 90.2354C82.5733 89.7702 82.8555 87.0054 82.8555 86.1926C82.8555 82.0736 81.2272 77.392 78.4031 74.6C78.0569 74.2577 77.808 73.9888 77.4571 73.651L76.3609 72.7257C74.1341 71.0461 70.5355 69.3896 67.5685 69.3896C64.9384 69.3896 62.8196 69.4577 60.4493 70.6088C59.9544 70.8491 59.4995 71.1631 58.9775 71.2847L58.9775 71.2847Z" fill="#BCBEBE"/>
</g>
<defs>
<clipPath id="clip0_30_67">
<rect width="175.695" height="40.9722" fill="white" transform="translate(43.0791 69.3896)"/>
</clipPath>
</defs>
</svg>
