<svg width="113" height="114" viewBox="0 0 113 114" fill="none" xmlns="http://www.w3.org/2000/svg">
<rect x="0.363281" y="0.591309" width="112.445" height="112.445" fill="white"/>
<g clip-path="url(#clip0_30_43)">
<path d="M70.4085 57.5932L50.545 70.8355C50.4039 70.9294 50.24 70.9833 50.0707 70.9914C49.9014 70.9995 49.7331 70.9615 49.5836 70.8815C49.4342 70.8015 49.3093 70.6825 49.2221 70.5371C49.135 70.3917 49.089 70.2254 49.0889 70.0559V43.5713C49.089 43.4018 49.135 43.2355 49.2221 43.0901C49.3093 42.9448 49.4342 42.8257 49.5836 42.7457C49.7331 42.6657 49.9014 42.6277 50.0707 42.6358C50.24 42.6439 50.4039 42.6978 50.545 42.7917L70.4085 56.034C70.5368 56.1196 70.642 56.2355 70.7148 56.3715C70.7876 56.5075 70.8257 56.6594 70.8257 56.8136C70.8257 56.9679 70.7876 57.1197 70.7148 57.2557C70.642 57.3917 70.5368 57.5077 70.4085 57.5932V57.5932Z" fill="#29ABE2"/>
</g>
<defs>
<clipPath id="clip0_30_43">
<rect width="44.978" height="44.978" fill="white" transform="translate(34.0967 34.3247)"/>
</clipPath>
</defs>
</svg>
