<svg width="114" height="113" viewBox="0 0 114 113" fill="none" xmlns="http://www.w3.org/2000/svg">
<rect x="0.777344" y="0.0937195" width="112.445" height="112.445" fill="white"/>
<g clip-path="url(#clip0_30_226)">
<path d="M70.823 57.0957L50.9596 70.338C50.8185 70.4319 50.6545 70.4858 50.4852 70.4939C50.3159 70.502 50.1476 70.464 49.9982 70.384C49.8487 70.304 49.7238 70.185 49.6367 70.0396C49.5496 69.8942 49.5035 69.7279 49.5034 69.5584V43.0738C49.5035 42.9043 49.5496 42.738 49.6367 42.5927C49.7238 42.4473 49.8487 42.3282 49.9982 42.2482C50.1476 42.1682 50.3159 42.1303 50.4852 42.1384C50.6545 42.1465 50.8185 42.2003 50.9596 42.2942L70.823 55.5365C70.9513 55.6221 71.0566 55.738 71.1293 55.874C71.2021 56.01 71.2402 56.1619 71.2402 56.3161C71.2402 56.4704 71.2021 56.6222 71.1293 56.7582C71.0566 56.8942 70.9513 57.0102 70.823 57.0957V57.0957Z" fill="#1A1A1A"/>
</g>
<defs>
<clipPath id="clip0_30_226">
<rect width="44.978" height="44.978" fill="white" transform="translate(34.5107 33.8273)"/>
</clipPath>
</defs>
</svg>
