<svg width="24" height="24" viewBox="0 0 24 24" fill="none" xmlns="http://www.w3.org/2000/svg">
<g clip-path="url(#clip0_295_21)">
<path d="M23.6663 19.957L20.2825 23.3136C19.7831 23.8258 19.121 23.9994 18.4762 24.0001C15.6248 23.9147 12.9296 22.5141 10.7166 21.0758C7.08416 18.4333 3.75124 15.1565 1.65944 11.1968C0.85716 9.53633 -0.0842006 7.41771 0.00573946 5.56433C0.0137595 4.86713 0.201639 4.18287 0.692659 3.73347L4.07638 0.35145C4.77902 -0.24621 5.45852 -0.0395702 5.90816 0.65659L8.63038 5.81863C8.9169 6.43017 8.75254 7.08541 8.32506 7.52239L7.07842 8.76839C7.00146 8.87381 6.95246 8.99381 6.95122 9.12441C7.42926 10.9748 8.87748 12.6804 10.1568 13.8541C11.4362 15.0279 12.8113 16.6181 14.5964 16.9945C14.817 17.0561 15.0873 17.0777 15.2451 16.931L16.6953 15.4561C17.1953 15.0772 17.9171 14.892 18.4508 15.2018H18.4762L23.3864 18.1007C24.1072 18.5525 24.1824 19.4257 23.6663 19.957Z" fill="#1A1A1A"/>
</g>
<defs>
<clipPath id="clip0_295_21">
<rect width="24" height="24" fill="white"/>
</clipPath>
</defs>
</svg>
