<svg width="350" height="69" viewBox="0 0 350 69" fill="none" xmlns="http://www.w3.org/2000/svg">
<g clip-path="url(#clip0_30_253)">
<path d="M85.2473 23.9595H89.464V40.8262H102.114V45.0429H85.2473V23.9595Z" fill="#1A1A1A"/>
<path d="M123.902 26.0679V42.9346H119.685V26.0679H123.902Z" fill="#1A1A1A"/>
<path d="M142.174 45.0429V23.9595H163.258V45.0429H142.174ZM159.041 40.8262V28.1762H146.391V40.8262H159.041Z" fill="#1A1A1A"/>
<path d="M111.251 23.9595V28.1762H132.334V23.9595H111.251ZM111.251 40.8262V45.0429H132.334V40.8262H111.251Z" fill="#1A1A1A"/>
<path d="M173.097 45.0429V23.9595H177.314L189.964 38.9147V23.9595H194.181V45.0429H189.964L177.314 30.5445V45.0429H173.097Z" fill="#1A1A1A"/>
<path d="M204 24H225.083V28.2167H208.217V40.8668H225.083V45.0835H204V24ZM220.867 36.6501H214.542V32.4334H220.867V36.6501ZM220.867 40.8668V32.4334H225.083V40.8668H220.867Z" fill="#1A1A1A"/>
<path d="M234.943 45.0429V23.9595H256.027V36.6095H239.16V45.0429H234.943ZM239.16 28.1762V32.3929H251.81V28.1762H239.16ZM249.702 36.6095L257.432 45.0429H251.81L244.08 36.6095H249.702Z" fill="#1A1A1A"/>
<path d="M265.866 45.0429V23.9595H286.95V45.0429H265.866ZM282.733 40.8262V28.1762H270.083V40.8262H282.733Z" fill="#1A1A1A"/>
<path d="M301.006 23.9595V40.8262H313.656V23.9595H317.873V45.0429H296.79V23.9595H301.006Z" fill="#1A1A1A"/>
<path d="M328.416 45.0429V23.9595H349.499V36.6095H332.632V45.0429H328.416ZM332.632 28.1762V32.3929H345.282V28.1762H332.632Z" fill="#1A1A1A"/>
<path d="M57.8374 19.7423L59.9458 17.634V13.4173L55.7291 9.20059H47.2957L38.8623 0.767212H30.4289L21.9956 9.20059H13.5622L9.34549 13.4173V17.634L11.4538 19.7423L0.912109 30.284V42.9341L26.2123 68.2343H43.079L68.3792 42.9341V30.284L57.8374 19.7423ZM42.3762 55.5842L38.1595 59.8009H31.1317L26.915 55.5842L34.6456 47.8536L42.3762 55.5842ZM51.5124 34.5007V42.9341L43.079 51.3675L34.6456 42.9341L26.2123 51.3675L17.7789 42.9341V34.5007L13.5622 30.284L30.4289 13.4173H38.8623L55.7291 30.284L51.5124 34.5007Z" fill="#1A1A1A"/>
<path d="M47.2958 26.0674V30.2841H43.0791V38.7175L34.6457 47.1508L26.2123 38.7175V30.2841H21.9956V26.0674H30.429V38.0147H38.8624V26.0674H47.2958Z" fill="#1A1A1A"/>
</g>
<defs>
<clipPath id="clip0_30_253">
<rect width="348.58" height="67.4684" fill="white" transform="translate(0.912109 0.767212)"/>
</clipPath>
</defs>
</svg>
